<?xml version="1.0" encoding="UTF-8"?>
<svg id="Livello_1" data-name="Livello 1" xmlns="http://www.w3.org/2000/svg" xmlns:xlink="http://www.w3.org/1999/xlink" viewBox="0 0 1920 1080">
  <defs>
    <style>
      .cls-1 {
        fill: #ff5900;
      }

      .cls-1, .cls-2 {
        stroke-width: .5px;
      }

      .cls-1, .cls-2, .cls-3 {
        stroke: #000;
        stroke-miterlimit: 10;
      }

      .cls-2 {
        fill: url(#Sfumatura_senza_nome_73);
      }

      .cls-3 {
        fill: url(#Sfumatura_senza_nome_5);
        stroke-width: .75px;
      }
    </style>
    <linearGradient id="Sfumatura_senza_nome_5" data-name="Sfumatura senza nome 5" x1="957.6" y1="774.78" x2="964.48" y2="-32.44" gradientUnits="userSpaceOnUse">
      <stop offset=".03" stop-color="#ff5900"/>
      <stop offset=".77" stop-color="#000"/>
    </linearGradient>
    <linearGradient id="Sfumatura_senza_nome_73" data-name="Sfumatura senza nome 73" x1="876.23" y1="164.41" x2="969" y2="573.27" gradientUnits="userSpaceOnUse">
      <stop offset="0" stop-color="#1a1a1a"/>
      <stop offset=".27" stop-color="rgba(31, 27, 25, .98)" stop-opacity=".98"/>
      <stop offset=".53" stop-color="rgba(46, 31, 23, .92)" stop-opacity=".92"/>
      <stop offset=".61" stop-color="#352117" stop-opacity=".89"/>
      <stop offset=".7" stop-color="rgba(74, 38, 20, .7)" stop-opacity=".7"/>
      <stop offset=".79" stop-color="#79340f" stop-opacity=".27"/>
      <stop offset=".92" stop-color="#ff5900" stop-opacity="0"/>
    </linearGradient>
  </defs>
  <path class="cls-1" d="M1141.09,454.94c-1.39-2.59-2.79-5.17-4.21-7.73-12.98-22.58-27.74-44.26-44.55-64.21-1.35-1.59-3.39-2.44-5.52-2.39-.19-.23-.37-.47-.56-.7-1.55-.02-3.13-.04-4.69-.06-3.49-9.68-10.37-8.53-23.68-9.51-19.74.43-19.69-.46-30.88,4.9-2.21,1.29-.92,5.92-.79,7.94l3.73-.14c-.72.14-1.44.26-2.15.42l-1.33.06c-1.08.05-2.14.35-3.09.88-.15.09-.26.18-.41.27-1.51.4-3.03.75-4.51,1.22-3.6.19-7.22.35-10.83.53-1.76-.58-3.78-.47-5.76-.16-1.56,0-3.19.26-4.7.58-.76.16-1.53.31-2.3.47-2.31.23-4.61.49-6.91.83-43.54,7.52-87.02,17.73-128.78,32.24-9.38,3.61-18.47,9.9-28.57,11.13-.01,0-.02,0-.03.01-.03,0-.06,0-.09,0-.05-.29-.32-.99-.66-1.8-.36-1.05-.79-2.21-1.36-3.14,0-.02-.03-.06-.03-.07-.01-.01-.03-.01-.04-.03-.56-.87-1.26-1.51-2.16-1.57-.57.01-1.09.03-1.61.04-1.86-.24-4.11-.04-6.57.47-2.36.35-4.36.96-6.88,2.02-6.9,2.52-14.45,6.48-20.47,10.33-4.3,2.47-7.56,4.48-9.44,7.14,0,0,0,0,0,0-2.61,2.38-1.98,6.4-1.6,9.57-1.01.5-2.03.99-3.04,1.49l-2.91,1.34c-.27.13-.51.3-.76.46-.35.17-.7.34-1.05.52-.04.12-.07.25-.1.37-.98.93-1.71,2.09-2.02,3.41-1.94,8.7-3.47,17.48-4.82,26.3-.58,3.52-1.12,7.1-1.58,10.76-.17,1.35-.32,2.7-.48,4.05-.34,2.99-.66,6-.92,9.06-.89,9.11-1.61,18.23-1.98,27.37-.03,1.45-.05,2.91-.08,4.37-.79,43.06,1.98,87.76,21.14,126.94,6.55,13.54,17.78,32.68,35.3,30.59,0,0,0,0,.01,0,5.96.77,12.74.49,20.65-.7,13.25.4,13.39-14.43,14.46-24.19,1.38-8.64,2.57-17.31,3.53-26,2.02-18.05,2.71-38.29,15.52-52.48,5.76-6.24,12.1-8.02,20.38-9.36,28.13-4.55,55.29-12.53,82.79-19.58,16.68-4.28,33.51-7.76,50.23-11.83,17.59-4.28,34.59-17.09,52.04-4.45,7.81,5.66,12.07,14.28,17.13,22.2,6.01,9.41,12.63,18.48,19.43,27.32,5.67,7.36,10.39,18.4,18.84,22.95,3.32,2.69,16.37-2.72,26.25-8.31,1.29.12,2.67.06,4.19-.26,16.5-6.25,17.6-28.41,17.15-43.45-1.09-42.11-18.13-81.72-37.86-118.43Z"/>
  <path class="cls-3" d="M1138.47,898.56c-53.9,26.68-114.62,41.69-178.84,41.69-196.44,0-360.11-140.34-396.21-326.24-4.87-25.04-7.41-50.92-7.41-77.39s2.54-52.35,7.41-77.39c36.1-185.89,199.76-326.23,396.21-326.23,64.22,0,124.94,15,178.84,41.68-25.57-5.57-52.11-8.5-79.33-8.5-204.6,0-370.46,165.85-370.46,370.45s165.85,370.45,370.46,370.45c27.22,0,53.77-2.94,79.33-8.51ZM959.63,807.57c-15.77,0-31.23-1.34-46.28-3.94,43.29,23.68,92.96,37.14,145.78,37.14,164.92,0,299.16-131.21,304.01-294.96.07-3.06.1-6.12.1-9.19s-.04-6.13-.1-9.19c-4.85-163.75-139.08-294.97-304.01-294.97-52.82,0-102.5,13.47-145.78,37.14,15.05-2.59,30.51-3.93,46.28-3.93,149.64,0,270.95,121.3,270.95,270.94s-121.31,270.94-270.95,270.94Z"/>
  <path class="cls-2" d="M1141.86,454.8c-1.39-2.59-2.79-5.17-4.21-7.73-12.98-22.58-27.74-44.26-44.55-64.21-1.35-1.59-3.39-2.44-5.52-2.39-.19-.23-.37-.47-.56-.7-1.55-.02-3.13-.04-4.69-.06-3.49-9.68-10.37-8.53-23.68-9.51-19.74.43-19.69-.46-30.88,4.9-2.21,1.29-.92,5.92-.79,7.94l3.73-.14c-.72.14-1.44.26-2.15.42l-1.33.06c-1.08.05-2.14.35-3.09.88-.15.09-.26.18-.41.27-1.51.4-3.03.75-4.51,1.22-3.6.19-7.22.35-10.83.53-1.76-.58-3.78-.47-5.76-.16-1.56,0-3.19.26-4.7.58-.76.16-1.53.31-2.3.47-2.31.23-4.61.49-6.91.83-43.54,7.52-87.02,17.73-128.78,32.24-9.38,3.61-18.47,9.9-28.57,11.13-.01,0-.02,0-.03.01-.03,0-.06,0-.09,0-.05-.29-.32-.99-.66-1.8-.36-1.05-.79-2.21-1.36-3.14,0-.02-.03-.06-.03-.07-.01-.01-.03-.01-.04-.03-.56-.87-1.26-1.51-2.16-1.57-.57.01-1.09.03-1.61.04-1.86-.24-4.11-.04-6.57.47-2.36.35-4.36.96-6.88,2.02-6.9,2.52-14.45,6.48-20.47,10.33-4.3,2.47-7.56,4.48-9.44,7.14,0,0,0,0,0,0-2.61,2.38-1.98,6.4-1.6,9.57-1.01.5-2.03.99-3.04,1.49l-2.91,1.34c-.27.13-.51.3-.76.46-.35.17-.7.34-1.05.52-.04.12-.07.25-.1.37-.98.93-1.71,2.09-2.02,3.41-1.94,8.7-3.47,17.48-4.82,26.3-.58,3.52-1.12,7.1-1.58,10.76-.17,1.35-.32,2.7-.48,4.05-.34,2.99-.66,6-.92,9.06-.89,9.11-1.61,18.23-1.98,27.37-.03,1.45-.05,2.91-.08,4.37-.79,43.06,1.98,87.76,21.14,126.94,6.55,13.54,17.78,32.68,35.3,30.59,0,0,0,0,.01,0,5.96.77,12.74.49,20.65-.7,13.25.4,13.39-14.43,14.46-24.19,1.38-8.64,2.57-17.31,3.53-26,2.02-18.05,2.71-38.29,15.52-52.48,5.76-6.24,12.1-8.02,20.38-9.36,28.13-4.55,55.29-12.53,82.79-19.58,16.68-4.28,33.51-7.76,50.23-11.83,17.59-4.28,34.59-17.09,52.04-4.45,7.81,5.66,12.07,14.28,17.13,22.2,6.01,9.41,12.63,18.48,19.43,27.32,5.67,7.36,10.39,18.4,18.84,22.95,3.32,2.69,16.37-2.72,26.25-8.31,1.29.12,2.67.06,4.19-.26,16.5-6.25,17.6-28.41,17.15-43.45-1.09-42.11-18.13-81.72-37.86-118.43Z"/>
</svg>